<?xml version="1.0" encoding="utf-8"?>
<!-- Generator: Adobe Illustrator 15.1.0, SVG Export Plug-In . SVG Version: 6.00 Build 0)  -->
<!DOCTYPE svg PUBLIC "-//W3C//DTD SVG 1.1//EN" "http://www.w3.org/Graphics/SVG/1.1/DTD/svg11.dtd">
<svg version="1.1" id="Layer_1" xmlns="http://www.w3.org/2000/svg" xmlns:xlink="http://www.w3.org/1999/xlink" x="0px" y="0px"
	 width="289.64px" height="30.823px" viewBox="0 0 289.64 30.823" enable-background="new 0 0 289.64 30.823" xml:space="preserve">
<g>
	<path fill="#333333" d="M0,0.958h10.658c8.051,0,14.683,6.326,14.683,14.453c0,8.127-6.671,14.453-14.683,14.453H0V0.958z
		 M7.514,23.5h1.687c4.486,0,8.319-2.454,8.319-8.089c0-5.175-3.412-8.089-8.243-8.089H7.514V23.5z"/>
	<path fill="#333333" d="M39.069,24.842l-1.993,5.022h-7.974L40.219,0.958h8.204l10.888,28.906h-8.013l-1.878-5.022H39.069z
		 M44.321,9.891h-0.077l-3.105,9.201h6.249L44.321,9.891z"/>
	<path fill="#333333" d="M73.736,29.864h-7.514V7.322h-6.21V0.958h19.935v6.364h-6.211V29.864z"/>
	<path fill="#333333" d="M90.613,24.842l-1.993,5.022h-7.974L91.764,0.958h8.204l10.888,28.906h-8.013l-1.878-5.022H90.613z
		 M95.866,9.891h-0.077l-3.104,9.201h6.249L95.866,9.891z"/>
	<path fill="#333333" d="M156.136,29.864h-9.354l-7.092-11.118h-0.077v11.118h-7.514V0.958h11.232
		c5.713,0,10.044,2.722,10.044,8.894c0,3.987-2.223,7.438-6.325,8.166L156.136,29.864z M139.613,13.916h0.729
		c2.454,0,5.214-0.46,5.214-3.604s-2.76-3.604-5.214-3.604h-0.729V13.916z"/>
	<path fill="#333333" d="M191.563,14.875c0,9.354-6.709,15.949-15.987,15.949c-9.277,0-15.986-6.595-15.986-15.949
		C159.589,6.134,167.257,0,175.576,0C183.895,0,191.563,6.134,191.563,14.875z M167.411,14.913c0,4.983,3.681,8.625,8.165,8.625
		c4.485,0,8.166-3.642,8.166-8.625c0-3.987-3.681-7.629-8.166-7.629C171.091,7.284,167.411,10.926,167.411,14.913z"/>
	<path fill="#333333" d="M205.445,23.5h9.01v6.364h-16.523V0.958h7.514V23.5z"/>
	<path fill="#333333" d="M227.3,23.5h9.008v6.364h-16.522V0.958h7.515V23.5z"/>
	<path fill="#333333" d="M249.153,7.322v4.831h8.474v6.363h-8.474V23.5h8.933v6.364H241.64V0.958h16.445v6.364H249.153z"/>
	<path fill="#333333" d="M289.64,29.864h-9.354l-7.093-11.118h-0.076v11.118h-7.514V0.958h11.231c5.713,0,10.046,2.722,10.046,8.894
		c0,3.987-2.225,7.438-6.327,8.166L289.64,29.864z M273.117,13.916h0.729c2.453,0,5.213-0.46,5.213-3.604s-2.76-3.604-5.213-3.604
		h-0.729V13.916z"/>
</g>
</svg>
