<?xml version="1.0" encoding="utf-8"?>
<!-- Generator: Adobe Illustrator 15.1.0, SVG Export Plug-In . SVG Version: 6.00 Build 0)  -->
<!DOCTYPE svg PUBLIC "-//W3C//DTD SVG 1.1//EN" "http://www.w3.org/Graphics/SVG/1.1/DTD/svg11.dtd">
<svg version="1.1" id="Layer_1" xmlns="http://www.w3.org/2000/svg" xmlns:xlink="http://www.w3.org/1999/xlink" x="0px" y="0px"
	 width="398.644px" height="42.458px" viewBox="0 -12.621 398.644 42.458" enable-background="new 0 -12.621 398.644 42.458"
	 xml:space="preserve">
<g>
	<path fill="#333333" d="M11.035-3.273v7.096h12.107v9.345H11.035v16.667H0V-12.62h24.38v9.347H11.035z"/>
	<path fill="#333333" d="M45.78,29.835H34.743V-12.62h11.037L45.78,29.835L45.78,29.835z"/>
	<path fill="#333333" d="M68.248,20.489h13.233v9.346H57.213V-12.62h11.035V20.489z"/>
	<path fill="#333333" d="M100.349-3.273v7.096h12.444v9.345h-12.444v7.322h13.121v9.346H89.313V-12.62h24.154v9.347H100.349z"/>
	<path fill="#333333" d="M148.045,29.835V-12.62h15.768c7.544,0,12.612,2.929,12.612,11.037c0,3.828-1.238,6.927-4.673,8.672V7.2
		c6.081,0.788,8.668,4.899,8.668,10.812c0,8.895-7.601,11.826-15.372,11.826h-17.003V29.835z M159.08,4.046h1.239
		c2.927,0,5.969-0.505,5.969-4.11c0-3.886-3.435-4.112-6.418-4.112h-0.789L159.08,4.046L159.08,4.046z M159.08,21.389h1.409
		c3.266,0,8.784,0.169,8.784-4.504c0-5.126-5.461-4.618-9.066-4.618h-1.128v9.122H159.08z"/>
	<path fill="#333333" d="M201.204,22.46l-2.929,7.375h-11.71l16.327-42.456h12.049l15.99,42.456h-11.768l-2.757-7.377h-15.203V22.46
		L201.204,22.46z M208.916,0.499h-0.113l-4.56,13.513h9.18L208.916,0.499z"/>
	<path fill="#333333" d="M263.088-12.62h13.682L259.879,7.48l18.413,22.354h-14.304l-14.246-18.413h-0.109v18.413h-11.039V-12.62
		h11.039V4.892h0.109L263.088-12.62z"/>
	<path fill="#333333" d="M296.543-3.273v7.096h12.441v9.345h-12.441v7.322h13.119v9.346h-24.156V-12.62h24.156v9.347H296.543z"/>
	<path fill="#333333" d="M356.003,29.835h-13.736L331.85,13.504h-0.114v16.331H320.7V-12.62h16.499
		c8.388,0,14.751,3.998,14.751,13.064c0,5.854-3.266,10.924-9.288,11.991L356.003,29.835z M331.735,6.413h1.069
		c3.604,0,7.654-0.677,7.654-5.292c0-4.617-4.053-5.294-7.654-5.294h-1.069V6.413L331.735,6.413z"/>
	<path fill="#333333" d="M356.304-12.62h13.231l7.938,11.542l7.939-11.542h13.23L382.991,9.451v20.384h-11.036V9.451L356.304-12.62z
		"/>
</g>
</svg>
